<mxfile host="app.diagrams.net" modified="2022-03-17T00:51:07.934Z" agent="5.0 (Windows NT 10.0; Win64; x64) AppleWebKit/537.36 (KHTML, like Gecko) Chrome/99.0.4844.74 Safari/537.36" etag="iCl4wNO_QQzYVDQ-aj6l" version="17.1.3" type="github">
  <diagram id="C5RBs43oDa-KdzZeNtuy" name="Page-1">
    <mxGraphModel dx="868" dy="482" grid="1" gridSize="10" guides="1" tooltips="1" connect="1" arrows="1" fold="1" page="1" pageScale="1" pageWidth="827" pageHeight="1169" math="0" shadow="0">
      <root>
        <mxCell id="WIyWlLk6GJQsqaUBKTNV-0" />
        <mxCell id="WIyWlLk6GJQsqaUBKTNV-1" parent="WIyWlLk6GJQsqaUBKTNV-0" />
        <mxCell id="NLqoDjCfKacOoK1klfhs-12" value="" style="edgeStyle=orthogonalEdgeStyle;rounded=0;orthogonalLoop=1;jettySize=auto;html=1;" edge="1" parent="WIyWlLk6GJQsqaUBKTNV-1" source="NLqoDjCfKacOoK1klfhs-2" target="NLqoDjCfKacOoK1klfhs-4">
          <mxGeometry relative="1" as="geometry" />
        </mxCell>
        <mxCell id="NLqoDjCfKacOoK1klfhs-2" value="INICIO" style="rounded=1;whiteSpace=wrap;html=1;" vertex="1" parent="WIyWlLk6GJQsqaUBKTNV-1">
          <mxGeometry x="10" y="80" width="120" height="60" as="geometry" />
        </mxCell>
        <mxCell id="NLqoDjCfKacOoK1klfhs-13" value="" style="edgeStyle=orthogonalEdgeStyle;rounded=0;orthogonalLoop=1;jettySize=auto;html=1;" edge="1" parent="WIyWlLk6GJQsqaUBKTNV-1" source="NLqoDjCfKacOoK1klfhs-4">
          <mxGeometry relative="1" as="geometry">
            <mxPoint x="180" y="220" as="targetPoint" />
          </mxGeometry>
        </mxCell>
        <mxCell id="NLqoDjCfKacOoK1klfhs-34" value="" style="edgeStyle=orthogonalEdgeStyle;rounded=0;orthogonalLoop=1;jettySize=auto;html=1;fontSize=10;" edge="1" parent="WIyWlLk6GJQsqaUBKTNV-1" source="NLqoDjCfKacOoK1klfhs-4" target="NLqoDjCfKacOoK1klfhs-30">
          <mxGeometry relative="1" as="geometry" />
        </mxCell>
        <mxCell id="NLqoDjCfKacOoK1klfhs-4" value="&lt;font size=&quot;1&quot;&gt;valor 1&lt;br&gt;valor 2&lt;br&gt;&lt;/font&gt;" style="shape=parallelogram;perimeter=parallelogramPerimeter;whiteSpace=wrap;html=1;fixedSize=1;" vertex="1" parent="WIyWlLk6GJQsqaUBKTNV-1">
          <mxGeometry x="10" y="190" width="120" height="60" as="geometry" />
        </mxCell>
        <mxCell id="NLqoDjCfKacOoK1klfhs-28" value="" style="edgeStyle=orthogonalEdgeStyle;rounded=0;orthogonalLoop=1;jettySize=auto;html=1;fontSize=10;" edge="1" parent="WIyWlLk6GJQsqaUBKTNV-1" source="NLqoDjCfKacOoK1klfhs-10" target="NLqoDjCfKacOoK1klfhs-16">
          <mxGeometry relative="1" as="geometry" />
        </mxCell>
        <mxCell id="NLqoDjCfKacOoK1klfhs-10" value="valor 1" style="shape=document;whiteSpace=wrap;html=1;boundedLbl=1;" vertex="1" parent="WIyWlLk6GJQsqaUBKTNV-1">
          <mxGeometry x="370" y="140" width="120" height="80" as="geometry" />
        </mxCell>
        <mxCell id="NLqoDjCfKacOoK1klfhs-16" value="FIM" style="rounded=1;whiteSpace=wrap;html=1;" vertex="1" parent="WIyWlLk6GJQsqaUBKTNV-1">
          <mxGeometry x="600" y="150" width="120" height="60" as="geometry" />
        </mxCell>
        <mxCell id="NLqoDjCfKacOoK1klfhs-19" value="verdaeiro" style="edgeStyle=orthogonalEdgeStyle;rounded=0;orthogonalLoop=1;jettySize=auto;html=1;fontSize=10;" edge="1" parent="WIyWlLk6GJQsqaUBKTNV-1" source="NLqoDjCfKacOoK1klfhs-18" target="NLqoDjCfKacOoK1klfhs-10">
          <mxGeometry relative="1" as="geometry" />
        </mxCell>
        <mxCell id="NLqoDjCfKacOoK1klfhs-27" value="falso" style="edgeStyle=orthogonalEdgeStyle;rounded=0;orthogonalLoop=1;jettySize=auto;html=1;fontSize=10;" edge="1" parent="WIyWlLk6GJQsqaUBKTNV-1" source="NLqoDjCfKacOoK1klfhs-18" target="NLqoDjCfKacOoK1klfhs-26">
          <mxGeometry relative="1" as="geometry" />
        </mxCell>
        <mxCell id="NLqoDjCfKacOoK1klfhs-18" value="valor 1 &amp;gt; valor 2" style="rhombus;whiteSpace=wrap;html=1;fontSize=10;" vertex="1" parent="WIyWlLk6GJQsqaUBKTNV-1">
          <mxGeometry x="180" y="160" width="150" height="120" as="geometry" />
        </mxCell>
        <mxCell id="NLqoDjCfKacOoK1klfhs-29" value="" style="edgeStyle=orthogonalEdgeStyle;rounded=0;orthogonalLoop=1;jettySize=auto;html=1;fontSize=10;" edge="1" parent="WIyWlLk6GJQsqaUBKTNV-1" source="NLqoDjCfKacOoK1klfhs-26" target="NLqoDjCfKacOoK1klfhs-16">
          <mxGeometry relative="1" as="geometry" />
        </mxCell>
        <mxCell id="NLqoDjCfKacOoK1klfhs-26" value="valor 2" style="shape=document;whiteSpace=wrap;html=1;boundedLbl=1;fontSize=10;" vertex="1" parent="WIyWlLk6GJQsqaUBKTNV-1">
          <mxGeometry x="370" y="250" width="120" height="80" as="geometry" />
        </mxCell>
        <mxCell id="NLqoDjCfKacOoK1klfhs-33" value="verdadeiro" style="edgeStyle=orthogonalEdgeStyle;rounded=0;orthogonalLoop=1;jettySize=auto;html=1;fontSize=10;" edge="1" parent="WIyWlLk6GJQsqaUBKTNV-1" source="NLqoDjCfKacOoK1klfhs-30" target="NLqoDjCfKacOoK1klfhs-32">
          <mxGeometry relative="1" as="geometry" />
        </mxCell>
        <mxCell id="NLqoDjCfKacOoK1klfhs-30" value="valor 1 = valor 2" style="rhombus;whiteSpace=wrap;html=1;fontSize=10;" vertex="1" parent="WIyWlLk6GJQsqaUBKTNV-1">
          <mxGeometry x="190" y="33" width="120" height="100" as="geometry" />
        </mxCell>
        <mxCell id="NLqoDjCfKacOoK1klfhs-35" value="" style="edgeStyle=orthogonalEdgeStyle;rounded=0;orthogonalLoop=1;jettySize=auto;html=1;fontSize=10;" edge="1" parent="WIyWlLk6GJQsqaUBKTNV-1" source="NLqoDjCfKacOoK1klfhs-32" target="NLqoDjCfKacOoK1klfhs-16">
          <mxGeometry relative="1" as="geometry" />
        </mxCell>
        <mxCell id="NLqoDjCfKacOoK1klfhs-32" value="valores sÃ£o iguais" style="shape=document;whiteSpace=wrap;html=1;boundedLbl=1;fontSize=10;rotation=0;" vertex="1" parent="WIyWlLk6GJQsqaUBKTNV-1">
          <mxGeometry x="370" y="49" width="120" height="68" as="geometry" />
        </mxCell>
      </root>
    </mxGraphModel>
  </diagram>
</mxfile>
